<?xml version="1.0" encoding="UTF-8" standalone="no"?>
<!-- Created with Inkscape (http://www.inkscape.org/) -->

<svg
   xmlns:dc="http://purl.org/dc/elements/1.1/"
   xmlns:cc="http://creativecommons.org/ns#"
   xmlns:rdf="http://www.w3.org/1999/02/22-rdf-syntax-ns#"
   xmlns:svg="http://www.w3.org/2000/svg"
   xmlns="http://www.w3.org/2000/svg"
   xmlns:sodipodi="http://sodipodi.sourceforge.net/DTD/sodipodi-0.dtd"
   xmlns:inkscape="http://www.inkscape.org/namespaces/inkscape"
   width="100mm"
   height="100mm"
   viewBox="0 0 100 100"
   version="1.1"
   id="svg8"
   inkscape:export-filename="/Users/adriaanpeetermans/Desktop/dixitLogo.png"
   inkscape:export-xdpi="200"
   inkscape:export-ydpi="200"
   inkscape:version="0.92.2 5c3e80d, 2017-08-06"
   sodipodi:docname="dixitTitle.svg">
  <defs
     id="defs2" />
  <sodipodi:namedview
     id="base"
     pagecolor="#ffffff"
     bordercolor="#666666"
     borderopacity="1.0"
     inkscape:pageopacity="0.0"
     inkscape:pageshadow="2"
     inkscape:zoom="1.2338858"
     inkscape:cx="177.18472"
     inkscape:cy="214.47116"
     inkscape:document-units="mm"
     inkscape:current-layer="g882"
     showgrid="false"
     inkscape:window-width="1440"
     inkscape:window-height="789"
     inkscape:window-x="0"
     inkscape:window-y="1"
     inkscape:window-maximized="1" />
  <metadata
     id="metadata5">
    <rdf:RDF>
      <cc:Work
         rdf:about="">
        <dc:format>image/svg+xml</dc:format>
        <dc:type
           rdf:resource="http://purl.org/dc/dcmitype/StillImage" />
        <dc:title></dc:title>
      </cc:Work>
    </rdf:RDF>
  </metadata>
  <g
     inkscape:label="Layer 1"
     inkscape:groupmode="layer"
     id="layer1"
     transform="translate(0,-197)">
    <circle
       style="opacity:1;fill:#c1d980;fill-opacity:1;fill-rule:nonzero;stroke:#425178;stroke-width:4.665;stroke-linecap:round;stroke-linejoin:round;stroke-miterlimit:4;stroke-dasharray:none;stroke-dashoffset:0;stroke-opacity:1;paint-order:fill markers stroke"
       id="path900"
       cx="50"
       cy="247"
       r="47.6675" />
    <g
       id="g882"
       transform="translate(-9.5047618,3.9054441)">
      <path
         style="fill:#d7b782;stroke-width:0.2;stroke:#187d80;stroke-opacity:1;stroke-miterlimit:4;stroke-dasharray:none"
         d="m 38.949785,276.5521 c -0.388494,-0.1793 -0.640444,-0.4385 -0.797932,-0.8209 -0.0974,-0.23649 -0.105,-0.62733 -0.04651,-2.39097 0.07862,-2.37077 0.128146,-2.8795 0.426247,-4.37872 0.115281,-0.57978 0.250087,-1.27308 0.299571,-1.54066 0.04948,-0.26759 0.342506,-1.23183 0.651164,-2.14275 0.610774,-1.80253 1.18538,-2.94572 1.858995,-3.6985 0.200991,-0.22461 0.52964,-0.6404 0.730332,-0.92398 0.200691,-0.28358 0.483932,-0.66539 0.629425,-0.84847 0.145492,-0.18308 0.327938,-0.43707 0.405437,-0.56442 0.449722,-0.73901 1.119187,-1.50091 2.878138,-3.2755 1.970245,-1.98776 2.284996,-2.26168 4.185654,-3.64264 0.563025,-0.40908 1.096661,-0.79728 1.185858,-0.86267 0.156704,-0.11488 0.157235,-0.12437 0.01574,-0.2812 -0.08054,-0.0893 -0.372451,-0.28118 -0.648699,-0.42647 -0.276248,-0.14528 -0.73945,-0.45449 -1.029338,-0.68713 -0.289888,-0.23264 -0.795329,-0.61293 -1.123204,-0.84509 -0.327874,-0.23216 -0.896632,-0.73884 -1.263906,-1.12595 -1.507815,-1.58925 -1.994143,-2.13586 -2.123143,-2.38633 -0.07467,-0.14498 -0.230705,-0.38811 -0.34674,-0.54029 -0.604404,-0.79268 -1.738978,-3.13855 -2.317295,-4.79128 -0.312885,-0.89417 -0.406962,-1.35435 -0.52218,-2.55425 -0.03854,-0.40138 -0.129939,-0.94566 -0.203105,-1.20949 -0.11675,-0.421 -0.128336,-0.90227 -0.09468,-3.93274 0.02109,-1.89917 0.07049,-4.00038 0.109769,-4.66935 0.06968,-1.18666 0.08286,-1.24974 0.540448,-2.58689 0.257966,-0.75382 0.628503,-1.69824 0.823414,-2.0987 l 0.354385,-0.72813 -0.206448,-0.24535 c -0.113547,-0.13494 -0.353867,-0.54063 -0.534047,-0.90153 -0.42375,-0.84878 -0.615875,-1.09712 -1.191295,-1.5399 -1.255747,-0.96627 -2.443651,-1.43963 -5.078685,-2.02375 -1.122637,-0.24886 -2.0811,-0.37658 -2.825997,-0.37658 -1.150171,0 -1.605469,-0.21467 -1.95871,-0.92353 -0.255594,-0.51292 -0.255594,-0.88352 0,-1.39643 0.384507,-0.7716 0.777124,-0.92363 2.384456,-0.92328 1.226552,2.7e-4 1.886721,0.0858 3.454388,0.44782 0.490579,0.11327 1.147387,0.26425 1.459573,0.33552 0.312187,0.0713 1.071882,0.3293 1.688213,0.57342 2.061401,0.81647 3.773177,2.03386 4.476878,3.18388 0.524777,0.85762 0.791095,1.21631 0.903063,1.21631 0.06568,0 0.271941,-0.10431 0.458368,-0.2318 0.504905,-0.34529 2.304599,-1.41816 2.790493,-1.66353 0.472427,-0.23857 1.145856,-0.44077 2.295297,-0.68916 0.18016,-0.0389 0.347297,-0.0905 0.371416,-0.11464 0.05741,-0.0574 -0.698633,-1.56282 -1.149296,-2.28846 -0.214605,-0.34554 -0.513382,-0.69066 -0.762198,-0.88041 -0.22508,-0.17165 -0.409235,-0.34304 -0.409235,-0.38087 0,-0.10583 -1.105334,-0.72708 -1.699434,-0.95517 -0.710562,-0.2728 -0.939725,-0.45467 -1.179717,-0.93628 -0.331174,-0.66457 -0.23726,-1.37136 0.254554,-1.91574 0.355456,-0.39344 0.705877,-0.51122 1.403698,-0.47179 1.222404,0.0691 3.709033,1.64341 4.680256,2.96318 0.22286,0.30283 0.516252,0.71481 0.651982,0.9155 0.349488,0.51676 1.452092,2.66863 1.516524,2.95969 0.02962,0.1338 0.111565,0.43243 0.182104,0.66363 l 0.128255,0.42037 0.740639,0.0374 c 0.407352,0.0206 0.941331,0.0789 1.186621,0.12958 0.245289,0.0507 0.610183,0.12216 0.810874,0.15886 0.200692,0.0367 0.474362,0.11201 0.608156,0.16735 0.529075,0.21885 1.13515,0.32833 1.817611,0.32833 0.511917,0 0.827495,0.044 1.110996,0.15504 0.994683,0.38945 0.971357,0.38927 1.165518,0.009 0.09018,-0.17676 0.268145,-0.44099 0.395482,-0.58718 0.127335,-0.14618 0.295629,-0.39091 0.373985,-0.54383 0.225201,-0.43953 0.64496,-0.92442 2.031874,-2.34711 0.711902,-0.73027 1.3491,-1.40834 1.415997,-1.50682 0.442977,-0.65211 1.839444,-1.75755 2.919148,-2.3108 0.289887,-0.14854 0.72776,-0.40467 0.973049,-0.56919 0.660027,-0.44268 1.61351,-0.81297 2.093377,-0.81297 0.633322,0 1.208168,0.3405 1.491957,0.88373 0.280829,0.53757 0.286081,0.90951 0.02037,1.44272 -0.234997,0.47157 -0.532729,0.70294 -1.428625,1.11017 -0.341239,0.15511 -0.88858,0.44236 -1.216311,0.63833 -0.327732,0.19597 -0.760078,0.45108 -0.96077,0.5669 -0.338185,0.19517 -2.057147,1.90569 -3.48676,3.46962 -0.62594,0.68476 -1.215598,1.49994 -1.216054,1.68115 -4.05e-4,0.16178 0.699652,0.41912 2.067472,0.75999 0.720289,0.1795 0.963674,0.26316 2.625705,0.90251 0.422789,0.16264 1.099296,0.58482 2.051776,1.28043 l 0.460935,0.33663 0.593202,-0.44142 c 0.326261,-0.24279 0.757405,-0.55292 0.958096,-0.68918 0.200692,-0.13627 0.456117,-0.34647 0.567612,-0.46712 0.111496,-0.12065 0.366921,-0.30807 0.567612,-0.4165 0.562458,-0.30387 1.063365,-0.62477 1.503866,-0.96344 0.555586,-0.42715 1.460505,-0.83153 2.468845,-1.10326 0.4686,-0.12627 1.10742,-0.29895 1.4196,-0.38373 0.42526,-0.11548 0.99773,-0.16889 2.28253,-0.21297 1.9138,-0.0656 2.37452,0.002 2.87267,0.42104 0.73284,0.61664 0.73284,1.86184 0,2.47848 -0.46153,0.38836 -1.02584,0.49373 -2.34035,0.43701 -1.27455,-0.055 -1.80754,0.0146 -3.1812,0.41522 -0.53002,0.15458 -0.9684,0.35123 -1.39942,0.62775 -0.34519,0.22146 -1.005435,0.63983 -1.467202,0.92972 -1.130238,0.70954 -1.99951,1.31861 -2.216696,1.55316 -0.196502,0.21222 -0.208249,0.16994 0.245662,0.88423 0.739297,1.16338 1.275678,2.27951 1.43954,2.99547 0.03573,0.15609 0.196135,0.77389 0.356467,1.37288 l 0.291511,1.08908 -0.03265,3.12747 c -0.03156,3.02275 -0.112552,4.43036 -0.298926,5.1952 -0.0489,0.20069 -0.117618,0.69329 -0.152697,1.09468 -0.04128,0.47238 -0.138374,0.91568 -0.27527,1.25685 -0.116321,0.28989 -0.26966,0.81691 -0.340756,1.17116 -0.0711,0.35424 -0.233349,0.88334 -0.360564,1.17576 -0.127215,0.29243 -0.294258,0.76887 -0.371207,1.05875 -0.197634,0.74454 -1.014633,2.38401 -1.475023,2.95993 -0.213807,0.26746 -0.607455,0.79587 -0.874774,1.17425 -0.523622,0.74117 -1.825118,2.14123 -2.275685,2.44803 -0.152333,0.10373 -0.277218,0.25134 -0.277523,0.32803 -3.24e-4,0.0827 0.251785,0.31351 0.62013,0.56761 0.341376,0.2355 0.854248,0.58969 1.139716,0.78709 0.285467,0.1974 0.70858,0.56429 0.940249,0.81531 0.730426,0.79144 1.898255,3.18219 2.298106,4.70462 0.06442,0.24529 0.221651,0.7379 0.349397,1.09468 0.127747,0.35679 0.313557,0.92237 0.412911,1.25686 0.09935,0.33448 0.321579,1.03014 0.493832,1.5459 0.172253,0.51576 0.313188,1.03782 0.313188,1.16013 0,0.12231 0.03912,0.39362 0.08693,0.60292 0.04781,0.20929 0.153942,0.67244 0.235851,1.02922 0.08191,0.35679 0.191848,0.86764 0.244309,1.13523 0.05246,0.26759 0.111382,0.5595 0.130937,0.6487 0.01955,0.0892 0.07379,0.45409 0.120516,0.81087 0.04673,0.35679 0.121791,0.92237 0.166791,1.25686 0.045,0.33448 0.11756,0.88182 0.16123,1.21631 0.0437,0.33449 0.098,1.42421 0.12079,2.4216 0.0392,1.71692 0.0322,1.83616 -0.1318,2.24012 -0.19913,0.49063 -0.48009,0.78999 -0.909955,0.96956 -0.595626,0.2488 -1.404601,0.0841 -1.823202,-0.37128 -0.410104,-0.4461 -0.466579,-0.72784 -0.526116,-2.62466 -0.0308,-0.98116 -0.09296,-2.11233 -0.138142,-2.51371 -0.137766,-1.22386 -0.243929,-2.0093 -0.323325,-2.39208 -0.07289,-0.35141 -0.19842,-0.98162 -0.331106,-1.66229 -0.03477,-0.17839 -0.144447,-0.78047 -0.243717,-1.33794 -0.09927,-0.55748 -0.327076,-1.43323 -0.506237,-1.9461 -0.778536,-2.22869 -1.199136,-3.47632 -1.312135,-3.8922 -0.273525,-1.00669 -0.882801,-2.32297 -1.347086,-2.91025 -0.321645,-0.40685 -1.414938,-1.27891 -1.937704,-1.54561 -0.415183,-0.21181 -1.375938,-0.48295 -2.35928,-0.66581 -0.24529,-0.0456 -1.321725,-0.11294 -2.39208,-0.14961 -2.523116,-0.0864 -4.073771,-0.23071 -5.473402,-0.50927 -0.334486,-0.0666 -0.881826,-0.165 -1.216311,-0.21872 -0.881925,-0.14165 -1.594548,-0.31701 -2.148818,-0.52878 -0.267588,-0.10224 -0.654475,-0.22929 -0.859749,-0.28233 -0.352657,-0.0911 -0.401811,-0.0822 -0.891962,0.16282 -0.285305,0.1426 -0.701398,0.39572 -0.92465,0.56249 -0.223253,0.16677 -0.533412,0.36866 -0.689243,0.44864 -1.049248,0.5385 -2.622513,1.84434 -4.09444,3.39846 -0.535177,0.56506 -1.431963,1.50958 -1.992857,2.09893 -0.560895,0.58935 -1.136019,1.25784 -1.278054,1.48552 -0.142035,0.22769 -0.335541,0.48312 -0.430012,0.56762 -0.09447,0.0845 -0.262784,0.29959 -0.374028,0.47798 -0.288832,0.46317 -0.818143,1.16906 -1.124863,1.50012 -0.589063,0.63579 -1.548405,2.92585 -1.88527,4.50035 -0.391062,1.82781 -0.529557,3.04204 -0.573428,5.02742 -0.04235,1.91659 -0.0552,2.04832 -0.235543,2.41456 -0.424105,0.86127 -1.488225,1.26366 -2.322963,0.8784 z m 28.163589,-26.89547 c 0.722486,-0.24235 1.026039,-0.45441 2.428822,-1.69677 0.613188,-0.54307 1.938741,-2.27656 2.387198,-3.12187 0.130133,-0.24529 0.338876,-0.73789 0.463875,-1.09468 0.124998,-0.35678 0.301625,-0.84939 0.392503,-1.09468 0.09088,-0.24529 0.226234,-0.71864 0.300789,-1.05189 0.07455,-0.33325 0.187389,-0.72997 0.250743,-0.88159 0.06335,-0.15163 0.115187,-0.43365 0.115187,-0.62672 0,-0.19307 0.0579,-0.56263 0.128672,-0.82124 0.202574,-0.74028 0.293409,-1.98399 0.333417,-4.56513 0.03487,-2.24949 0.02646,-2.438 -0.140968,-3.16241 -0.233605,-1.01073 -0.881341,-2.65232 -1.221175,-3.0949 -0.50392,-0.65627 -1.246641,-1.37886 -1.993577,-1.93955 -0.409648,-0.3075 -0.767632,-0.59602 -0.79552,-0.64114 -0.105936,-0.17141 -1.397684,-0.69356 -2.220569,-0.89761 -0.329171,-0.0816 -0.767043,-0.20308 -0.973049,-0.26991 -0.437256,-0.14185 -1.225973,-0.36071 -1.631412,-0.4527 -0.156093,-0.0354 -0.448008,-0.12121 -0.648699,-0.19065 -0.419241,-0.14506 -1.314507,-0.36207 -1.905555,-0.46191 -0.775281,-0.13096 -2.261816,-0.58234 -2.428569,-0.73743 -0.04237,-0.0394 -0.466662,-0.0716 -0.942875,-0.0716 -0.62654,0 -0.95262,-0.0372 -1.179823,-0.1346 -0.172688,-0.074 -0.478182,-0.16693 -0.678873,-0.20644 -0.200692,-0.0395 -0.547341,-0.11241 -0.770331,-0.16199 -0.51905,-0.1154 -3.77399,-0.1203 -4.257091,-0.006 -1.16301,0.27419 -2.793949,1.26502 -3.958785,2.40505 -0.860013,0.84169 -0.863675,0.84742 -1.278513,1.9976 -0.279658,0.77539 -0.312906,0.9577 -0.376909,2.06672 -0.03861,0.66897 -0.08792,2.48288 -0.109582,4.03092 -0.03739,2.6718 -0.031,2.84013 0.125773,3.3177 0.09151,0.27877 0.165158,0.71891 0.165158,0.9871 0,0.52582 0.05244,0.76548 0.41584,1.9006 0.435035,1.35887 1.017203,2.5783 1.732824,3.62963 0.378363,0.55586 1.150247,1.4713 1.534446,1.81982 0.17489,0.15865 0.466805,0.44756 0.648699,0.64202 0.556992,0.59548 2.408345,1.86558 3.13421,2.15019 0.197406,0.0774 0.508644,0.24657 0.691641,0.37592 0.373031,0.26367 0.899466,0.48591 1.856639,0.78379 0.356785,0.11104 0.940614,0.30344 1.297399,0.42756 0.641478,0.22316 1.041866,0.31812 2.06773,0.49041 0.289887,0.0487 0.709515,0.12168 0.932505,0.16221 0.222991,0.0405 0.621337,0.11183 0.885214,0.15846 0.263877,0.0466 0.792973,0.0884 1.175768,0.0928 0.382795,0.004 0.787215,0.0373 0.89871,0.073 0.111495,0.0357 0.72538,0.0686 1.364189,0.073 1.045222,0.007 1.223771,-0.0128 1.783924,-0.2007 z m -5.986174,-3.4348 c -0.492588,-0.0578 -1.26069,-0.261 -2.51371,-0.66514 -0.289888,-0.0935 -0.879955,-0.25571 -1.31126,-0.36046 -0.431305,-0.10475 -1.069868,-0.32357 -1.41903,-0.48627 -0.349162,-0.16269 -0.883506,-0.39811 -1.187432,-0.52315 -1.155052,-0.47522 -2.073528,-1.19063 -3.047532,-2.37376 -0.650719,-0.79044 -0.819496,-1.13632 -0.81736,-1.67504 0.004,-1.00171 0.683692,-1.70904 1.637635,-1.70415 0.51833,0.003 0.958627,0.24381 1.40748,0.77086 1.099948,1.29159 1.247127,1.4167 2.227656,1.89371 1.413976,0.68786 1.693869,0.79954 2.257514,0.90076 0.284901,0.0512 0.704529,0.1677 0.932506,0.25896 0.612413,0.24515 2.134425,0.63374 2.482192,0.63374 0.299671,0 0.685252,-0.21999 0.846072,-0.48273 0.177263,-0.2896 2.753234,-2.89103 2.950933,-2.9801 0.271766,-0.12243 0.984101,-0.13283 1.285994,-0.0188 0.561678,0.21222 0.993783,0.89133 0.996819,1.56664 0.0031,0.69359 -0.147274,1.01076 -0.811903,1.71224 -0.338037,0.35679 -0.692843,0.7517 -0.788457,0.87758 -0.09561,0.12589 -0.31911,0.34482 -0.496657,0.48653 -0.177546,0.1417 -0.425635,0.3875 -0.551309,0.54621 -0.367817,0.46452 -1.298117,1.20903 -1.795614,1.43702 -0.50973,0.23359 -1.31546,0.29895 -2.284537,0.18532 z m 3.97276,-12.23941 c -0.38467,-0.12613 -0.689403,-0.32185 -0.983862,-0.63189 -0.491828,-0.51785 -0.595416,-0.79058 -0.595416,-1.56762 0,-0.77698 0.10352,-1.04956 0.595416,-1.5678 0.493676,-0.52011 0.840111,-0.66016 1.633087,-0.66016 0.792975,0 1.13941,0.14005 1.633086,0.66016 0.491896,0.51824 0.595416,0.79082 0.595416,1.5678 0,0.77699 -0.10352,1.04957 -0.595416,1.56781 -0.436592,0.45997 -0.847453,0.64285 -1.511455,0.67277 -0.312187,0.0141 -0.659072,-0.004 -0.770856,-0.0411 z m -12.000941,-1.2974 c -0.38467,-0.12613 -0.689403,-0.32185 -0.983862,-0.63189 -0.491828,-0.51785 -0.595416,-0.79058 -0.595416,-1.56762 0,-0.77698 0.10352,-1.04956 0.595416,-1.5678 0.493675,-0.52011 0.84011,-0.66015 1.633086,-0.66015 0.792976,0 1.139411,0.14004 1.633087,0.66015 0.491896,0.51824 0.595416,0.79082 0.595416,1.5678 0,0.77699 -0.10352,1.04957 -0.595416,1.56781 -0.436592,0.45997 -0.847453,0.64285 -1.511456,0.67277 -0.312186,0.0141 -0.659071,-0.004 -0.770855,-0.0411 z"
         id="path888"
         inkscape:connector-curvature="0" />
      <path
         style="fill:#81a1d6;stroke-width:0.2;stroke:#187d80;stroke-opacity:1;stroke-miterlimit:4;stroke-dasharray:none"
         d="m 38.949783,276.55236 c -0.388494,-0.1793 -0.640444,-0.4385 -0.797932,-0.8209 -0.0974,-0.23649 -0.105,-0.62733 -0.04651,-2.39097 0.07862,-2.37077 0.128146,-2.8795 0.426247,-4.37872 0.115281,-0.57978 0.250087,-1.27308 0.299571,-1.54066 0.04948,-0.26759 0.342506,-1.23183 0.651164,-2.14275 0.610774,-1.80253 1.18538,-2.94572 1.858995,-3.6985 0.200991,-0.22461 0.52964,-0.6404 0.730332,-0.92398 0.200691,-0.28358 0.483932,-0.66539 0.629425,-0.84847 0.145492,-0.18308 0.327938,-0.43707 0.405437,-0.56442 0.449722,-0.73901 1.119187,-1.50091 2.878138,-3.2755 1.970245,-1.98776 2.284996,-2.26168 4.185654,-3.64264 0.563025,-0.40908 1.096661,-0.79728 1.185858,-0.86267 0.156704,-0.11488 0.157235,-0.12437 0.01574,-0.2812 -0.08054,-0.0893 -0.372451,-0.28118 -0.648699,-0.42647 -0.276248,-0.14528 -0.73945,-0.45449 -1.029338,-0.68713 -0.289888,-0.23264 -0.795329,-0.61293 -1.123204,-0.84509 -0.327874,-0.23216 -0.896632,-0.73884 -1.263906,-1.12595 -1.507815,-1.58925 -1.994143,-2.13586 -2.123143,-2.38633 -0.07467,-0.14498 -0.230705,-0.38811 -0.34674,-0.54029 -0.604404,-0.79268 -1.738978,-3.13855 -2.317295,-4.79128 -0.312885,-0.89417 -0.406962,-1.35435 -0.52218,-2.55425 -0.03854,-0.40138 -0.129939,-0.94566 -0.203105,-1.20949 -0.11675,-0.421 -0.128336,-0.90227 -0.09468,-3.93274 0.02109,-1.89917 0.07049,-4.00038 0.109769,-4.66935 0.06968,-1.18667 0.08289,-1.24991 0.542116,-2.5948 0.258884,-0.75817 0.611782,-1.66007 0.784218,-2.00423 l 0.313519,-0.62573 0.372064,0.15948 c 0.752328,0.32249 1.493329,0.16549 2.104745,-0.44592 0.612933,-0.61293 0.727065,-1.11494 0.444821,-1.95653 l -0.160589,-0.47884 0.204057,-0.16756 c 0.236812,-0.19444 2.508817,-1.56032 3.013523,-1.81165 0.514461,-0.25619 2.455368,-0.76493 2.455368,-0.64359 0,0.0167 0.07298,0.22995 0.162175,0.47398 0.0892,0.24403 0.162175,0.61451 0.162175,0.82328 0,0.42185 0.241121,1.06048 0.512258,1.35676 0.245549,0.26832 0.969164,0.57693 1.352753,0.57693 0.383589,0 1.107204,-0.30861 1.352753,-0.57693 0.369191,-0.40343 0.512258,-0.91404 0.512258,-1.82828 v -0.8511 l 0.587884,0.0396 c 0.323336,0.0218 0.788575,0.0806 1.033865,0.13064 0.245289,0.0501 0.610183,0.12109 0.810874,0.15779 0.200692,0.0367 0.474362,0.11281 0.608156,0.16914 0.476585,0.20063 0.823078,0.26464 1.74338,0.32208 0.834745,0.0521 1.64417,0.24311 1.833844,0.43279 0.02718,0.0272 -0.137267,0.42541 -0.365439,0.88495 -0.447011,0.90029 -0.504326,1.2417 -0.315656,1.88027 0.194651,0.65881 1.097338,1.34735 1.766399,1.34735 0.571499,0 1.39783,-0.53491 1.67409,-1.0837 0.266678,-0.52974 0.857708,-1.49835 1.06792,-1.75015 0.1923,-0.23034 0.243154,-0.25187 0.420922,-0.17817 0.207767,0.0861 1.166777,0.3663 1.742858,0.50915 0.814894,0.20206 2.65785,0.87567 3.185709,1.16439 0.336072,0.18382 1.476519,0.98701 1.669188,1.17557 0.03983,0.039 -0.08416,0.25314 -0.283806,0.49017 -0.194999,0.23151 -0.495833,0.58836 -0.668519,0.79299 -0.588494,0.69736 -0.752681,1.37301 -0.488926,2.01198 0.212146,0.51395 0.491777,0.81635 0.959483,1.03761 1.012946,0.4792 1.814171,0.12582 2.934885,-1.29445 l 0.253406,-0.32114 0.180707,0.16208 c 0.09939,0.0891 0.272835,0.32632 0.385435,0.52707 0.112602,0.20074 0.324777,0.56635 0.471502,0.81247 0.292985,0.49144 0.751668,1.5798 0.853719,2.02569 0.03573,0.15609 0.196135,0.77389 0.356467,1.37288 l 0.291511,1.08908 -0.03265,3.12747 c -0.03156,3.02275 -0.112552,4.43036 -0.298926,5.1952 -0.0489,0.20069 -0.117618,0.69329 -0.152697,1.09468 -0.04128,0.47238 -0.138374,0.91568 -0.27527,1.25685 -0.116321,0.28989 -0.26966,0.81691 -0.340756,1.17116 -0.0711,0.35424 -0.233349,0.88334 -0.360564,1.17576 -0.127215,0.29243 -0.294258,0.76887 -0.371207,1.05875 -0.197634,0.74454 -1.014633,2.38401 -1.475023,2.95993 -0.213807,0.26746 -0.607455,0.79587 -0.874774,1.17425 -0.523622,0.74117 -1.825118,2.14123 -2.275685,2.44803 -0.152333,0.10373 -0.277218,0.25134 -0.277523,0.32803 -3.24e-4,0.0827 0.251785,0.31351 0.62013,0.56761 0.341376,0.2355 0.854248,0.58969 1.139716,0.78709 0.285467,0.1974 0.70858,0.56429 0.940249,0.81531 0.730426,0.79144 1.898255,3.18219 2.298106,4.70462 0.06442,0.24529 0.221651,0.7379 0.349397,1.09468 0.127747,0.35679 0.313557,0.92237 0.412911,1.25686 0.09935,0.33448 0.321579,1.03014 0.493832,1.5459 0.172253,0.51576 0.313188,1.03782 0.313188,1.16013 0,0.12231 0.03912,0.39362 0.08693,0.60292 0.04781,0.20929 0.153942,0.67244 0.235851,1.02922 0.08191,0.35679 0.191848,0.86764 0.244309,1.13523 0.05246,0.26759 0.111382,0.5595 0.130937,0.6487 0.01955,0.0892 0.07379,0.45409 0.120516,0.81087 0.04673,0.35679 0.121786,0.92237 0.166791,1.25686 0.04501,0.33448 0.11756,0.88182 0.161232,1.21631 0.04367,0.33449 0.09802,1.42421 0.120783,2.4216 0.03918,1.71692 0.03216,1.83616 -0.131792,2.24012 -0.199133,0.49063 -0.480093,0.78999 -0.909958,0.96956 -0.595626,0.2488 -1.404601,0.0841 -1.823202,-0.37128 -0.410104,-0.4461 -0.466579,-0.72784 -0.526116,-2.62466 -0.0308,-0.98116 -0.09296,-2.11233 -0.138142,-2.51371 -0.137766,-1.22386 -0.243929,-2.0093 -0.323325,-2.39208 -0.07289,-0.35141 -0.19842,-0.98162 -0.331106,-1.66229 -0.03477,-0.17839 -0.144447,-0.78047 -0.243717,-1.33794 -0.09927,-0.55748 -0.327076,-1.43323 -0.506237,-1.9461 -0.778536,-2.22869 -1.199136,-3.47632 -1.312135,-3.8922 -0.273525,-1.00669 -0.882801,-2.32297 -1.347086,-2.91025 -0.321645,-0.40685 -1.414938,-1.27891 -1.937704,-1.54561 -0.415183,-0.21181 -1.375938,-0.48295 -2.35928,-0.66581 -0.24529,-0.0456 -1.321725,-0.11294 -2.39208,-0.14961 -2.523116,-0.0864 -4.073771,-0.23071 -5.473402,-0.50927 -0.334486,-0.0666 -0.881826,-0.165 -1.216311,-0.21872 -0.881925,-0.14165 -1.594548,-0.31701 -2.148818,-0.52878 -0.267588,-0.10224 -0.654475,-0.22929 -0.859749,-0.28233 -0.352657,-0.0911 -0.401811,-0.0822 -0.891962,0.16282 -0.285305,0.1426 -0.701398,0.39572 -0.92465,0.56249 -0.223253,0.16677 -0.533412,0.36866 -0.689243,0.44864 -1.049248,0.5385 -2.622513,1.84434 -4.09444,3.39846 -0.535177,0.56506 -1.431963,1.50958 -1.992857,2.09893 -0.560895,0.58935 -1.136019,1.25784 -1.278054,1.48552 -0.142035,0.22769 -0.335541,0.48312 -0.430012,0.56762 -0.09447,0.0845 -0.262784,0.29959 -0.374028,0.47798 -0.288832,0.46317 -0.818143,1.16906 -1.124863,1.50012 -0.589063,0.63579 -1.548405,2.92585 -1.88527,4.50035 -0.391062,1.82781 -0.529557,3.04204 -0.573428,5.02742 -0.04235,1.91659 -0.0552,2.04832 -0.235543,2.41456 -0.424105,0.86127 -1.488225,1.26366 -2.322963,0.8784 z m 28.163589,-26.89547 c 0.722486,-0.24235 1.026039,-0.45441 2.428822,-1.69677 0.613188,-0.54307 1.938741,-2.27656 2.387198,-3.12187 0.130133,-0.24529 0.338876,-0.73789 0.463875,-1.09468 0.124998,-0.35678 0.301625,-0.84939 0.392503,-1.09468 0.09088,-0.24529 0.226234,-0.71864 0.300789,-1.05189 0.07455,-0.33325 0.187389,-0.72997 0.250743,-0.88159 0.06335,-0.15163 0.115187,-0.43365 0.115187,-0.62672 0,-0.19307 0.0579,-0.56263 0.128672,-0.82124 0.202574,-0.74028 0.293409,-1.98399 0.333417,-4.56513 0.03487,-2.24949 0.02646,-2.438 -0.140968,-3.16241 -0.233605,-1.01073 -0.881341,-2.65232 -1.221175,-3.0949 -0.50392,-0.65627 -1.246641,-1.37886 -1.993577,-1.93955 -0.409648,-0.3075 -0.767632,-0.59602 -0.79552,-0.64114 -0.105936,-0.17141 -1.397684,-0.69356 -2.220569,-0.89761 -0.329171,-0.0816 -0.767043,-0.20308 -0.973049,-0.26991 -0.437256,-0.14185 -1.225973,-0.36071 -1.631412,-0.4527 -0.156093,-0.0354 -0.448008,-0.12121 -0.648699,-0.19065 -0.419241,-0.14506 -1.314507,-0.36207 -1.905555,-0.46191 -0.775281,-0.13096 -2.261816,-0.58234 -2.428569,-0.73743 -0.04237,-0.0394 -0.466662,-0.0716 -0.942875,-0.0716 -0.62654,0 -0.95262,-0.0372 -1.179823,-0.1346 -0.172688,-0.074 -0.478182,-0.16693 -0.678873,-0.20644 -0.200692,-0.0395 -0.547341,-0.11241 -0.770331,-0.16199 -0.51905,-0.1154 -3.77399,-0.1203 -4.257091,-0.006 -1.16301,0.27419 -2.793949,1.26502 -3.958785,2.40505 -0.860013,0.84169 -0.863675,0.84742 -1.278513,1.9976 -0.279658,0.77539 -0.312906,0.9577 -0.376909,2.06672 -0.03861,0.66897 -0.08792,2.48288 -0.109582,4.03092 -0.03739,2.6718 -0.031,2.84013 0.125773,3.3177 0.09151,0.27877 0.165158,0.71891 0.165158,0.9871 0,0.52582 0.05244,0.76548 0.41584,1.9006 0.435035,1.35887 1.017203,2.5783 1.732824,3.62963 0.378363,0.55586 1.150247,1.4713 1.534446,1.81982 0.17489,0.15865 0.466805,0.44756 0.648699,0.64202 0.556992,0.59548 2.408345,1.86558 3.13421,2.15019 0.197406,0.0774 0.508644,0.24657 0.691641,0.37592 0.373031,0.26367 0.899466,0.48591 1.856639,0.78379 0.356785,0.11104 0.940614,0.30344 1.297399,0.42756 0.641478,0.22316 1.041866,0.31812 2.06773,0.49041 0.289887,0.0487 0.709515,0.12168 0.932505,0.16221 0.222991,0.0405 0.621337,0.11183 0.885214,0.15846 0.263877,0.0466 0.792973,0.0884 1.175768,0.0928 0.382795,0.004 0.787215,0.0373 0.89871,0.073 0.111495,0.0357 0.72538,0.0686 1.364189,0.073 1.045222,0.007 1.223771,-0.0128 1.783924,-0.2007 z"
         id="path884"
         inkscape:connector-curvature="0" />
    </g>
  </g>
</svg>
